# xmcd CD database file
#
# Track frame offsets:
#	150
#	14747
#	33087
#	50014
#	65340
#	79962
#	95537
#	115162
#	131860
#	149012
#	164434
#	179517
#	194200
#	210652
#	223375
#	235702
#	253227
#	264395
#
# Disc length: 3679 seconds
#
# Revision: 0
# Processed by: cddbd v1.4PL0 Copyright (c) Steve Scherf et al.
# Submitted via: CDex 1.50Beta7
#
DISCID=220e5d12
DTITLE=Eli Silva e Zé Goiano - Modas de Viola Vol. 3
DYEAR=1900
DGENRE=Country
TTITLE0=Velho Poeta
TTITLE1=As Três Cuibanas
TTITLE2=Ferreirinha
TTITLE3=O Mineiro e o Italiano
TTITLE4=Pousa do Boiadeiro
TTITLE5=Boi Soberano
TTITLE6=Exemplo de Humildade
TTITLE7=Boiada Cuibana
TTITLE8=Terra Roxa
TTITLE9=Preto da Alma Branca
TTITLE10=Meu Sitiozinho
TTITLE11=Rei do Gado
TTITLE12=Cabloco na Cidade
TTITLE13=Adeus Mocidade
TTITLE14=Dona Felicidade
TTITLE15=Nelore Valente
TTITLE16=Trem das Sete
TTITLE17=O Esteio e o Estorvo
EXTD=
EXTT0=
EXTT1=
EXTT2=
EXTT3=
EXTT4=
EXTT5=
EXTT6=
EXTT7=
EXTT8=
EXTT9=
EXTT10=
EXTT11=
EXTT12=
EXTT13=
EXTT14=
EXTT15=
EXTT16=
EXTT17=
PLAYORDER=
